<?xml version='1.0' encoding='UTF-8'?>
<svg xmlns:svg="http://www.w3.org/2000/svg" width="29mm" height="29mm" version="1.1" fill_color="#002c5f" back_color="white" xmlns="http://www.w3.org/2000/svg"><svg:rect x="2mm" y="2mm" width="1mm" height="1mm" /><svg:rect x="3mm" y="2mm" width="1mm" height="1mm" /><svg:rect x="4mm" y="2mm" width="1mm" height="1mm" /><svg:rect x="5mm" y="2mm" width="1mm" height="1mm" /><svg:rect x="6mm" y="2mm" width="1mm" height="1mm" /><svg:rect x="7mm" y="2mm" width="1mm" height="1mm" /><svg:rect x="8mm" y="2mm" width="1mm" height="1mm" /><svg:rect x="10mm" y="2mm" width="1mm" height="1mm" /><svg:rect x="11mm" y="2mm" width="1mm" height="1mm" /><svg:rect x="12mm" y="2mm" width="1mm" height="1mm" /><svg:rect x="14mm" y="2mm" width="1mm" height="1mm" /><svg:rect x="15mm" y="2mm" width="1mm" height="1mm" /><svg:rect x="17mm" y="2mm" width="1mm" height="1mm" /><svg:rect x="18mm" y="2mm" width="1mm" height="1mm" /><svg:rect x="20mm" y="2mm" width="1mm" height="1mm" /><svg:rect x="21mm" y="2mm" width="1mm" height="1mm" /><svg:rect x="22mm" y="2mm" width="1mm" height="1mm" /><svg:rect x="23mm" y="2mm" width="1mm" height="1mm" /><svg:rect x="24mm" y="2mm" width="1mm" height="1mm" /><svg:rect x="25mm" y="2mm" width="1mm" height="1mm" /><svg:rect x="26mm" y="2mm" width="1mm" height="1mm" /><svg:rect x="2mm" y="3mm" width="1mm" height="1mm" /><svg:rect x="8mm" y="3mm" width="1mm" height="1mm" /><svg:rect x="14mm" y="3mm" width="1mm" height="1mm" /><svg:rect x="15mm" y="3mm" width="1mm" height="1mm" /><svg:rect x="18mm" y="3mm" width="1mm" height="1mm" /><svg:rect x="20mm" y="3mm" width="1mm" height="1mm" /><svg:rect x="26mm" y="3mm" width="1mm" height="1mm" /><svg:rect x="2mm" y="4mm" width="1mm" height="1mm" /><svg:rect x="4mm" y="4mm" width="1mm" height="1mm" /><svg:rect x="5mm" y="4mm" width="1mm" height="1mm" /><svg:rect x="6mm" y="4mm" width="1mm" height="1mm" /><svg:rect x="8mm" y="4mm" width="1mm" height="1mm" /><svg:rect x="12mm" y="4mm" width="1mm" height="1mm" /><svg:rect x="16mm" y="4mm" width="1mm" height="1mm" /><svg:rect x="17mm" y="4mm" width="1mm" height="1mm" /><svg:rect x="20mm" y="4mm" width="1mm" height="1mm" /><svg:rect x="22mm" y="4mm" width="1mm" height="1mm" /><svg:rect x="23mm" y="4mm" width="1mm" height="1mm" /><svg:rect x="24mm" y="4mm" width="1mm" height="1mm" /><svg:rect x="26mm" y="4mm" width="1mm" height="1mm" /><svg:rect x="2mm" y="5mm" width="1mm" height="1mm" /><svg:rect x="4mm" y="5mm" width="1mm" height="1mm" /><svg:rect x="5mm" y="5mm" width="1mm" height="1mm" /><svg:rect x="6mm" y="5mm" width="1mm" height="1mm" /><svg:rect x="8mm" y="5mm" width="1mm" height="1mm" /><svg:rect x="10mm" y="5mm" width="1mm" height="1mm" /><svg:rect x="13mm" y="5mm" width="1mm" height="1mm" /><svg:rect x="15mm" y="5mm" width="1mm" height="1mm" /><svg:rect x="16mm" y="5mm" width="1mm" height="1mm" /><svg:rect x="18mm" y="5mm" width="1mm" height="1mm" /><svg:rect x="20mm" y="5mm" width="1mm" height="1mm" /><svg:rect x="22mm" y="5mm" width="1mm" height="1mm" /><svg:rect x="23mm" y="5mm" width="1mm" height="1mm" /><svg:rect x="24mm" y="5mm" width="1mm" height="1mm" /><svg:rect x="26mm" y="5mm" width="1mm" height="1mm" /><svg:rect x="2mm" y="6mm" width="1mm" height="1mm" /><svg:rect x="4mm" y="6mm" width="1mm" height="1mm" /><svg:rect x="5mm" y="6mm" width="1mm" height="1mm" /><svg:rect x="6mm" y="6mm" width="1mm" height="1mm" /><svg:rect x="8mm" y="6mm" width="1mm" height="1mm" /><svg:rect x="10mm" y="6mm" width="1mm" height="1mm" /><svg:rect x="11mm" y="6mm" width="1mm" height="1mm" /><svg:rect x="12mm" y="6mm" width="1mm" height="1mm" /><svg:rect x="15mm" y="6mm" width="1mm" height="1mm" /><svg:rect x="16mm" y="6mm" width="1mm" height="1mm" /><svg:rect x="17mm" y="6mm" width="1mm" height="1mm" /><svg:rect x="18mm" y="6mm" width="1mm" height="1mm" /><svg:rect x="20mm" y="6mm" width="1mm" height="1mm" /><svg:rect x="22mm" y="6mm" width="1mm" height="1mm" /><svg:rect x="23mm" y="6mm" width="1mm" height="1mm" /><svg:rect x="24mm" y="6mm" width="1mm" height="1mm" /><svg:rect x="26mm" y="6mm" width="1mm" height="1mm" /><svg:rect x="2mm" y="7mm" width="1mm" height="1mm" /><svg:rect x="8mm" y="7mm" width="1mm" height="1mm" /><svg:rect x="10mm" y="7mm" width="1mm" height="1mm" /><svg:rect x="11mm" y="7mm" width="1mm" height="1mm" /><svg:rect x="15mm" y="7mm" width="1mm" height="1mm" /><svg:rect x="18mm" y="7mm" width="1mm" height="1mm" /><svg:rect x="20mm" y="7mm" width="1mm" height="1mm" /><svg:rect x="26mm" y="7mm" width="1mm" height="1mm" /><svg:rect x="2mm" y="8mm" width="1mm" height="1mm" /><svg:rect x="3mm" y="8mm" width="1mm" height="1mm" /><svg:rect x="4mm" y="8mm" width="1mm" height="1mm" /><svg:rect x="5mm" y="8mm" width="1mm" height="1mm" /><svg:rect x="6mm" y="8mm" width="1mm" height="1mm" /><svg:rect x="7mm" y="8mm" width="1mm" height="1mm" /><svg:rect x="8mm" y="8mm" width="1mm" height="1mm" /><svg:rect x="10mm" y="8mm" width="1mm" height="1mm" /><svg:rect x="12mm" y="8mm" width="1mm" height="1mm" /><svg:rect x="14mm" y="8mm" width="1mm" height="1mm" /><svg:rect x="16mm" y="8mm" width="1mm" height="1mm" /><svg:rect x="18mm" y="8mm" width="1mm" height="1mm" /><svg:rect x="20mm" y="8mm" width="1mm" height="1mm" /><svg:rect x="21mm" y="8mm" width="1mm" height="1mm" /><svg:rect x="22mm" y="8mm" width="1mm" height="1mm" /><svg:rect x="23mm" y="8mm" width="1mm" height="1mm" /><svg:rect x="24mm" y="8mm" width="1mm" height="1mm" /><svg:rect x="25mm" y="8mm" width="1mm" height="1mm" /><svg:rect x="26mm" y="8mm" width="1mm" height="1mm" /><svg:rect x="10mm" y="9mm" width="1mm" height="1mm" /><svg:rect x="11mm" y="9mm" width="1mm" height="1mm" /><svg:rect x="14mm" y="9mm" width="1mm" height="1mm" /><svg:rect x="16mm" y="9mm" width="1mm" height="1mm" /><svg:rect x="17mm" y="9mm" width="1mm" height="1mm" /><svg:rect x="18mm" y="9mm" width="1mm" height="1mm" /><svg:rect x="2mm" y="10mm" width="1mm" height="1mm" /><svg:rect x="6mm" y="10mm" width="1mm" height="1mm" /><svg:rect x="8mm" y="10mm" width="1mm" height="1mm" /><svg:rect x="9mm" y="10mm" width="1mm" height="1mm" /><svg:rect x="10mm" y="10mm" width="1mm" height="1mm" /><svg:rect x="11mm" y="10mm" width="1mm" height="1mm" /><svg:rect x="12mm" y="10mm" width="1mm" height="1mm" /><svg:rect x="19mm" y="10mm" width="1mm" height="1mm" /><svg:rect x="20mm" y="10mm" width="1mm" height="1mm" /><svg:rect x="21mm" y="10mm" width="1mm" height="1mm" /><svg:rect x="22mm" y="10mm" width="1mm" height="1mm" /><svg:rect x="23mm" y="10mm" width="1mm" height="1mm" /><svg:rect x="26mm" y="10mm" width="1mm" height="1mm" /><svg:rect x="6mm" y="11mm" width="1mm" height="1mm" /><svg:rect x="13mm" y="11mm" width="1mm" height="1mm" /><svg:rect x="16mm" y="11mm" width="1mm" height="1mm" /><svg:rect x="17mm" y="11mm" width="1mm" height="1mm" /><svg:rect x="18mm" y="11mm" width="1mm" height="1mm" /><svg:rect x="19mm" y="11mm" width="1mm" height="1mm" /><svg:rect x="22mm" y="11mm" width="1mm" height="1mm" /><svg:rect x="23mm" y="11mm" width="1mm" height="1mm" /><svg:rect x="25mm" y="11mm" width="1mm" height="1mm" /><svg:rect x="2mm" y="12mm" width="1mm" height="1mm" /><svg:rect x="3mm" y="12mm" width="1mm" height="1mm" /><svg:rect x="8mm" y="12mm" width="1mm" height="1mm" /><svg:rect x="9mm" y="12mm" width="1mm" height="1mm" /><svg:rect x="10mm" y="12mm" width="1mm" height="1mm" /><svg:rect x="14mm" y="12mm" width="1mm" height="1mm" /><svg:rect x="16mm" y="12mm" width="1mm" height="1mm" /><svg:rect x="17mm" y="12mm" width="1mm" height="1mm" /><svg:rect x="19mm" y="12mm" width="1mm" height="1mm" /><svg:rect x="23mm" y="12mm" width="1mm" height="1mm" /><svg:rect x="24mm" y="12mm" width="1mm" height="1mm" /><svg:rect x="2mm" y="13mm" width="1mm" height="1mm" /><svg:rect x="3mm" y="13mm" width="1mm" height="1mm" /><svg:rect x="6mm" y="13mm" width="1mm" height="1mm" /><svg:rect x="7mm" y="13mm" width="1mm" height="1mm" /><svg:rect x="10mm" y="13mm" width="1mm" height="1mm" /><svg:rect x="13mm" y="13mm" width="1mm" height="1mm" /><svg:rect x="18mm" y="13mm" width="1mm" height="1mm" /><svg:rect x="19mm" y="13mm" width="1mm" height="1mm" /><svg:rect x="20mm" y="13mm" width="1mm" height="1mm" /><svg:rect x="21mm" y="13mm" width="1mm" height="1mm" /><svg:rect x="24mm" y="13mm" width="1mm" height="1mm" /><svg:rect x="25mm" y="13mm" width="1mm" height="1mm" /><svg:rect x="4mm" y="14mm" width="1mm" height="1mm" /><svg:rect x="6mm" y="14mm" width="1mm" height="1mm" /><svg:rect x="8mm" y="14mm" width="1mm" height="1mm" /><svg:rect x="9mm" y="14mm" width="1mm" height="1mm" /><svg:rect x="10mm" y="14mm" width="1mm" height="1mm" /><svg:rect x="12mm" y="14mm" width="1mm" height="1mm" /><svg:rect x="14mm" y="14mm" width="1mm" height="1mm" /><svg:rect x="18mm" y="14mm" width="1mm" height="1mm" /><svg:rect x="19mm" y="14mm" width="1mm" height="1mm" /><svg:rect x="20mm" y="14mm" width="1mm" height="1mm" /><svg:rect x="23mm" y="14mm" width="1mm" height="1mm" /><svg:rect x="24mm" y="14mm" width="1mm" height="1mm" /><svg:rect x="25mm" y="14mm" width="1mm" height="1mm" /><svg:rect x="26mm" y="14mm" width="1mm" height="1mm" /><svg:rect x="2mm" y="15mm" width="1mm" height="1mm" /><svg:rect x="4mm" y="15mm" width="1mm" height="1mm" /><svg:rect x="5mm" y="15mm" width="1mm" height="1mm" /><svg:rect x="7mm" y="15mm" width="1mm" height="1mm" /><svg:rect x="9mm" y="15mm" width="1mm" height="1mm" /><svg:rect x="10mm" y="15mm" width="1mm" height="1mm" /><svg:rect x="11mm" y="15mm" width="1mm" height="1mm" /><svg:rect x="12mm" y="15mm" width="1mm" height="1mm" /><svg:rect x="14mm" y="15mm" width="1mm" height="1mm" /><svg:rect x="16mm" y="15mm" width="1mm" height="1mm" /><svg:rect x="17mm" y="15mm" width="1mm" height="1mm" /><svg:rect x="18mm" y="15mm" width="1mm" height="1mm" /><svg:rect x="19mm" y="15mm" width="1mm" height="1mm" /><svg:rect x="22mm" y="15mm" width="1mm" height="1mm" /><svg:rect x="25mm" y="15mm" width="1mm" height="1mm" /><svg:rect x="4mm" y="16mm" width="1mm" height="1mm" /><svg:rect x="8mm" y="16mm" width="1mm" height="1mm" /><svg:rect x="9mm" y="16mm" width="1mm" height="1mm" /><svg:rect x="11mm" y="16mm" width="1mm" height="1mm" /><svg:rect x="12mm" y="16mm" width="1mm" height="1mm" /><svg:rect x="13mm" y="16mm" width="1mm" height="1mm" /><svg:rect x="14mm" y="16mm" width="1mm" height="1mm" /><svg:rect x="16mm" y="16mm" width="1mm" height="1mm" /><svg:rect x="17mm" y="16mm" width="1mm" height="1mm" /><svg:rect x="18mm" y="16mm" width="1mm" height="1mm" /><svg:rect x="21mm" y="16mm" width="1mm" height="1mm" /><svg:rect x="22mm" y="16mm" width="1mm" height="1mm" /><svg:rect x="23mm" y="16mm" width="1mm" height="1mm" /><svg:rect x="24mm" y="16mm" width="1mm" height="1mm" /><svg:rect x="4mm" y="17mm" width="1mm" height="1mm" /><svg:rect x="6mm" y="17mm" width="1mm" height="1mm" /><svg:rect x="7mm" y="17mm" width="1mm" height="1mm" /><svg:rect x="9mm" y="17mm" width="1mm" height="1mm" /><svg:rect x="10mm" y="17mm" width="1mm" height="1mm" /><svg:rect x="16mm" y="17mm" width="1mm" height="1mm" /><svg:rect x="21mm" y="17mm" width="1mm" height="1mm" /><svg:rect x="22mm" y="17mm" width="1mm" height="1mm" /><svg:rect x="24mm" y="17mm" width="1mm" height="1mm" /><svg:rect x="25mm" y="17mm" width="1mm" height="1mm" /><svg:rect x="2mm" y="18mm" width="1mm" height="1mm" /><svg:rect x="3mm" y="18mm" width="1mm" height="1mm" /><svg:rect x="5mm" y="18mm" width="1mm" height="1mm" /><svg:rect x="8mm" y="18mm" width="1mm" height="1mm" /><svg:rect x="10mm" y="18mm" width="1mm" height="1mm" /><svg:rect x="12mm" y="18mm" width="1mm" height="1mm" /><svg:rect x="14mm" y="18mm" width="1mm" height="1mm" /><svg:rect x="17mm" y="18mm" width="1mm" height="1mm" /><svg:rect x="18mm" y="18mm" width="1mm" height="1mm" /><svg:rect x="19mm" y="18mm" width="1mm" height="1mm" /><svg:rect x="20mm" y="18mm" width="1mm" height="1mm" /><svg:rect x="21mm" y="18mm" width="1mm" height="1mm" /><svg:rect x="22mm" y="18mm" width="1mm" height="1mm" /><svg:rect x="23mm" y="18mm" width="1mm" height="1mm" /><svg:rect x="24mm" y="18mm" width="1mm" height="1mm" /><svg:rect x="10mm" y="19mm" width="1mm" height="1mm" /><svg:rect x="11mm" y="19mm" width="1mm" height="1mm" /><svg:rect x="13mm" y="19mm" width="1mm" height="1mm" /><svg:rect x="16mm" y="19mm" width="1mm" height="1mm" /><svg:rect x="18mm" y="19mm" width="1mm" height="1mm" /><svg:rect x="22mm" y="19mm" width="1mm" height="1mm" /><svg:rect x="2mm" y="20mm" width="1mm" height="1mm" /><svg:rect x="3mm" y="20mm" width="1mm" height="1mm" /><svg:rect x="4mm" y="20mm" width="1mm" height="1mm" /><svg:rect x="5mm" y="20mm" width="1mm" height="1mm" /><svg:rect x="6mm" y="20mm" width="1mm" height="1mm" /><svg:rect x="7mm" y="20mm" width="1mm" height="1mm" /><svg:rect x="8mm" y="20mm" width="1mm" height="1mm" /><svg:rect x="10mm" y="20mm" width="1mm" height="1mm" /><svg:rect x="12mm" y="20mm" width="1mm" height="1mm" /><svg:rect x="13mm" y="20mm" width="1mm" height="1mm" /><svg:rect x="14mm" y="20mm" width="1mm" height="1mm" /><svg:rect x="15mm" y="20mm" width="1mm" height="1mm" /><svg:rect x="16mm" y="20mm" width="1mm" height="1mm" /><svg:rect x="18mm" y="20mm" width="1mm" height="1mm" /><svg:rect x="20mm" y="20mm" width="1mm" height="1mm" /><svg:rect x="22mm" y="20mm" width="1mm" height="1mm" /><svg:rect x="2mm" y="21mm" width="1mm" height="1mm" /><svg:rect x="8mm" y="21mm" width="1mm" height="1mm" /><svg:rect x="11mm" y="21mm" width="1mm" height="1mm" /><svg:rect x="16mm" y="21mm" width="1mm" height="1mm" /><svg:rect x="17mm" y="21mm" width="1mm" height="1mm" /><svg:rect x="18mm" y="21mm" width="1mm" height="1mm" /><svg:rect x="22mm" y="21mm" width="1mm" height="1mm" /><svg:rect x="23mm" y="21mm" width="1mm" height="1mm" /><svg:rect x="24mm" y="21mm" width="1mm" height="1mm" /><svg:rect x="25mm" y="21mm" width="1mm" height="1mm" /><svg:rect x="26mm" y="21mm" width="1mm" height="1mm" /><svg:rect x="2mm" y="22mm" width="1mm" height="1mm" /><svg:rect x="4mm" y="22mm" width="1mm" height="1mm" /><svg:rect x="5mm" y="22mm" width="1mm" height="1mm" /><svg:rect x="6mm" y="22mm" width="1mm" height="1mm" /><svg:rect x="8mm" y="22mm" width="1mm" height="1mm" /><svg:rect x="10mm" y="22mm" width="1mm" height="1mm" /><svg:rect x="12mm" y="22mm" width="1mm" height="1mm" /><svg:rect x="14mm" y="22mm" width="1mm" height="1mm" /><svg:rect x="18mm" y="22mm" width="1mm" height="1mm" /><svg:rect x="19mm" y="22mm" width="1mm" height="1mm" /><svg:rect x="20mm" y="22mm" width="1mm" height="1mm" /><svg:rect x="21mm" y="22mm" width="1mm" height="1mm" /><svg:rect x="22mm" y="22mm" width="1mm" height="1mm" /><svg:rect x="23mm" y="22mm" width="1mm" height="1mm" /><svg:rect x="24mm" y="22mm" width="1mm" height="1mm" /><svg:rect x="2mm" y="23mm" width="1mm" height="1mm" /><svg:rect x="4mm" y="23mm" width="1mm" height="1mm" /><svg:rect x="5mm" y="23mm" width="1mm" height="1mm" /><svg:rect x="6mm" y="23mm" width="1mm" height="1mm" /><svg:rect x="8mm" y="23mm" width="1mm" height="1mm" /><svg:rect x="12mm" y="23mm" width="1mm" height="1mm" /><svg:rect x="13mm" y="23mm" width="1mm" height="1mm" /><svg:rect x="16mm" y="23mm" width="1mm" height="1mm" /><svg:rect x="19mm" y="23mm" width="1mm" height="1mm" /><svg:rect x="20mm" y="23mm" width="1mm" height="1mm" /><svg:rect x="21mm" y="23mm" width="1mm" height="1mm" /><svg:rect x="24mm" y="23mm" width="1mm" height="1mm" /><svg:rect x="25mm" y="23mm" width="1mm" height="1mm" /><svg:rect x="26mm" y="23mm" width="1mm" height="1mm" /><svg:rect x="2mm" y="24mm" width="1mm" height="1mm" /><svg:rect x="4mm" y="24mm" width="1mm" height="1mm" /><svg:rect x="5mm" y="24mm" width="1mm" height="1mm" /><svg:rect x="6mm" y="24mm" width="1mm" height="1mm" /><svg:rect x="8mm" y="24mm" width="1mm" height="1mm" /><svg:rect x="11mm" y="24mm" width="1mm" height="1mm" /><svg:rect x="13mm" y="24mm" width="1mm" height="1mm" /><svg:rect x="15mm" y="24mm" width="1mm" height="1mm" /><svg:rect x="18mm" y="24mm" width="1mm" height="1mm" /><svg:rect x="20mm" y="24mm" width="1mm" height="1mm" /><svg:rect x="23mm" y="24mm" width="1mm" height="1mm" /><svg:rect x="25mm" y="24mm" width="1mm" height="1mm" /><svg:rect x="2mm" y="25mm" width="1mm" height="1mm" /><svg:rect x="8mm" y="25mm" width="1mm" height="1mm" /><svg:rect x="11mm" y="25mm" width="1mm" height="1mm" /><svg:rect x="14mm" y="25mm" width="1mm" height="1mm" /><svg:rect x="16mm" y="25mm" width="1mm" height="1mm" /><svg:rect x="19mm" y="25mm" width="1mm" height="1mm" /><svg:rect x="21mm" y="25mm" width="1mm" height="1mm" /><svg:rect x="22mm" y="25mm" width="1mm" height="1mm" /><svg:rect x="23mm" y="25mm" width="1mm" height="1mm" /><svg:rect x="24mm" y="25mm" width="1mm" height="1mm" /><svg:rect x="25mm" y="25mm" width="1mm" height="1mm" /><svg:rect x="2mm" y="26mm" width="1mm" height="1mm" /><svg:rect x="3mm" y="26mm" width="1mm" height="1mm" /><svg:rect x="4mm" y="26mm" width="1mm" height="1mm" /><svg:rect x="5mm" y="26mm" width="1mm" height="1mm" /><svg:rect x="6mm" y="26mm" width="1mm" height="1mm" /><svg:rect x="7mm" y="26mm" width="1mm" height="1mm" /><svg:rect x="8mm" y="26mm" width="1mm" height="1mm" /><svg:rect x="10mm" y="26mm" width="1mm" height="1mm" /><svg:rect x="11mm" y="26mm" width="1mm" height="1mm" /><svg:rect x="12mm" y="26mm" width="1mm" height="1mm" /><svg:rect x="13mm" y="26mm" width="1mm" height="1mm" /><svg:rect x="14mm" y="26mm" width="1mm" height="1mm" /><svg:rect x="16mm" y="26mm" width="1mm" height="1mm" /><svg:rect x="17mm" y="26mm" width="1mm" height="1mm" /><svg:rect x="19mm" y="26mm" width="1mm" height="1mm" /><svg:rect x="24mm" y="26mm" width="1mm" height="1mm" /><svg:rect x="25mm" y="26mm" width="1mm" height="1mm" /><svg:rect x="26mm" y="26mm" width="1mm" height="1mm" /></svg>